<svg width="47px" height="47px" viewBox="-2 -2 51 51" version="1.1" xmlns="http://www.w3.org/2000/svg" xmlns:xlink="http://www.w3.org/1999/xlink">
    <g id="HealthIndexSettings">
        <g id="HealthIndexSettings-Small" transform="translate(-423.000000, -2662.000000)">
            <g id="calendar" transform="translate(34.000000, 1919.000000)">
                <g transform="translate(0.000000, 90.000000)" id="days">
                    <g transform="translate(15.000000, 195.000000)">
                        <g id="day2-copy-2" transform="translate(0.000000, 420.000000)">
                            <g id="overlay" transform="translate(0.000000, 27.000000)">
                                <path d="M403.522688,28.0661663 L403.522688,8.49007931 C403.522688,7.38550981 402.627258,6.49007931 401.522688,6.49007931 L393.022688,6.49007931 C391.918119,6.49007931 391.022688,7.38550981 391.022688,8.49007931 L391.022688,8.49007931 L391.022688,28.0661663 L371.446601,28.0661663 C370.342032,28.0661663 369.446601,28.9615968 369.446601,30.0661663 L369.446601,30.0661663 L369.446601,38.5661663 C369.446601,39.6707358 370.342032,40.5661663 371.446601,40.5661663 L391.022688,40.5661663 L391.022688,60.1422532 C391.022688,61.2468227 391.918119,62.1422532 393.022688,62.1422532 L393.022688,62.1422532 L401.522688,62.1422532 C402.627258,62.1422532 403.522688,61.2468227 403.522688,60.1422532 L403.522688,40.5661663 L423.098775,40.5661663 C424.203344,40.5661663 425.098775,39.6707358 425.098775,38.5661663 L425.098775,30.0661663 C425.098775,28.9615968 424.203344,28.0661663 423.098775,28.0661663 L403.522688,28.0661663 Z" id="Combined-Shape" transform="translate(397.272688, 34.316166) rotate(45.000000) translate(-397.272688, -34.316166) "></path>
                            </g>
                        </g>
                    </g>
                </g>
            </g>
        </g>
    </g>
</svg>
