<?xml version="1.0" encoding="UTF-8"?>
<svg class="scale__svg" width="100%" height="100%" viewBox="0 0 415 208" version="1.1" xmlns="http://www.w3.org/2000/svg" xmlns:xlink="http://www.w3.org/1999/xlink">
    <g id="HealthIndexResult" stroke="none" stroke-width="1" fill="none" fill-rule="evenodd">
        <g transform="translate(-228.000000, -511.000000)" id="body">
            <g transform="translate(165.000000, 232.000000)">
                <g id="HI-diagram" transform="translate(1.000000, 113.000000)">
                    <g id="healthRainbow" transform="translate(43.000000, 101.000000)">
                        <g id="body" transform="translate(18.000000, 0.000000)">
                            <g id="red" transform="translate(0.000000, 97.000000)">
                                <path d="M109.326904,26.8232351 L122.82933,53.9754248 C117.081189,58.1003836 112.204495,62.0094112 108.199249,65.7025074 C94.0511155,78.5448225 83.1686126,92.5064958 73.788681,112.286713 C64.4087494,132.066929 59.7954947,154.142097 60.0075531,175.999948 C57.4699219,175.997976 30.308088,176.001921 26.4415968,175.999948 C28.7325826,146.560301 35.8607789,120.04267 47.8261855,96.4470566 C61.330064,69.817598 81.8303036,46.6096575 109.326904,26.8232351 Z" id="redDark" fill="#E54544"></path>
                                <path d="M96.2393987,0.712124781 L110.250352,28.6802078 C82.3047129,48.2346486 61.5652683,71.8972002 48.0320185,99.6678625 C36.1941509,123.959546 29.5615311,149.402291 28.1341592,176 C25.4734927,176.000219 4.63773833,175.999781 1.00003925,176 C0.992229344,174.418204 1.00466492,173.07878 1.0301304,171.9789 C1.06624242,170.419184 1.10457298,168.679286 1.1661579,167.207371 C1.2823856,164.429462 1.43169111,161.79551 1.62024971,159.35445 C2.09058864,153.265492 2.74522002,148.18532 3.37713482,143.991002 C3.41689187,143.727116 3.46445991,143.50233 3.50391881,143.245125 C3.56107251,142.872581 3.62118239,142.449595 3.68037562,142.077726 C4.46901769,137.123252 5.46435326,132.211057 6.60754861,127.38084 C8.45414401,119.578626 10.45273,111.858117 13.1718735,104.376271 C15.1407899,98.9587084 17.3199338,93.4861467 19.8883011,88.1204769 C20.8873399,86.0333484 21.8726981,83.8579945 22.9147376,81.7575873 C23.3809571,80.8178429 26.5470913,74.9097495 27.6104937,73.0457267 C28.4096875,71.6448314 31.4700639,66.498233 33.4537082,63.361885 C39.5157228,53.7772087 48.462083,41.9047699 60.3363104,29.8314165 C64.5726379,25.7357307 70.942989,19.0793565 81.7118961,10.9584515 C84.8256393,8.45287032 89.6681401,5.03742809 96.2393987,0.712124781 Z" id="redLight" fill="#EB6A69"></path>
                            </g>
                            <g id="yellow" transform="translate(215.437477, 111.103829) rotate(-300.000000) translate(-215.437477, -111.103829) translate(143.437477, 13.603829)">
                                <path d="M124.953595,22.3934216 L143.276596,50.5084484 C133.893183,55.2335422 125.909919,60.1214716 119.326805,65.1722366 C105.657704,75.3789356 93.649414,88.0021591 82.9691588,104.583619 C69.2747281,125.844689 61.2067333,151.941656 60.0468849,174.4123 C59.5780763,179.130139 59.5446791,185.743016 59.9466935,194.250933 L28.7983676,192.3804 C27.2485111,157.173228 34.7994,124.707565 51.4510343,94.9834108 C68.1026686,65.2592567 92.603522,41.0625936 124.953595,22.3934216 Z" id="yellowDark" fill="#FFD849"></path>
                                <path d="M110.782673,0.822733524 L127.547135,26.3720431 C98.5105303,41.1462853 75.0450988,63.1573566 57.1508403,92.4052571 C39.2565818,121.653158 30.8260436,155.028546 31.8592258,192.531422 L0.692743708,190.732199 C0.646916048,188.500626 0.619367704,186.870294 0.610098676,185.841201 C0.585120801,183.068035 0.634446543,180.562416 0.69317473,178.341951 C0.739580755,176.587377 0.805633092,174.972462 0.896269786,173.59292 C1.44241051,162.766066 2.81014773,152.654926 5.04039206,141.86652 C10.1563556,118.12926 18.6838448,96.9240869 30.6159,77.0853022 C45.4462372,52.7331982 63.5747053,32.8724242 85.3530747,16.8890837 C93.1323649,11.0764265 101.608898,5.72097646 110.782673,0.822733524 Z" id="redLight" fill="#FFE06C"></path>
                            </g>
                            <g id="green" transform="translate(362.288279, 198.096262) rotate(-242.000000) translate(-362.288279, -198.096262) translate(292.788279, 114.596262)">
                                <path d="M138.12191,53.0099995 C117.094218,64.0035498 100.395869,78.9760159 88.1065364,95.4173033 C75.8172039,111.858591 67.1935992,130.526175 62.3663991,151.539855 C61.497036,155.193547 60.6833504,159.853459 59.9253422,165.51959 C59.9217272,165.546612 59.9253422,165.51959 41.6939786,165.683723 C30.5859171,165.985816 25.0318864,166.136863 25.0318864,166.136863 C24.6111121,141.217901 34.6208723,112.877186 55.0611669,81.114717 C73.1109584,53.0668857 94.7011149,32.2695035 119.877885,18.6979794 C121.840463,22.3890523 136.505461,49.9699011 138.12191,53.0099995 Z" id="greenDark" fill="#00A14E"></path>
                                <path d="M122.971484,24.5234495 C96.685821,39.5234823 75.5852542,60.0302987 59.6697842,86.0438987 C41.9014695,115.085946 32.5140085,141.748246 31.494634,165.953794 C16.4089029,166.426753 0.430537355,166.70789 0.454121636,166.442875 C0.654840865,164.187399 0.816090101,162.515135 0.937869344,161.426083 C1.38409057,157.435598 1.87351271,153.959632 2.35905809,151.005674 C2.56528041,149.75106 2.73085524,148.527498 2.93888562,147.456232 C3.36614422,145.054988 3.7747975,143.091917 4.08209263,141.582215 C4.28065887,140.608783 4.5441651,139.408233 4.75617536,138.422558 C10.2063059,114.216181 20.5433897,89.8167004 34.4434619,68.9692242 C51.1243622,43.9510323 72.9807299,23.1536704 97.9678762,7.94875576 C102.129067,5.4213624 106.251854,3.09467257 110.425747,0.921093139 C112.782371,5.36051503 121.220299,21.2226933 122.971484,24.5234495 Z" id="greenLight" fill="#28B470"></path>
                            </g>
                        </g>
                    </g>
                </g>
            </g>
        </g>
    </g>
</svg>
