<svg xmlns="http://www.w3.org/2000/svg" viewBox="0 0 151 152">
  <g fill="none" fill-rule="evenodd">
    <path fill="#C4A8E0" fill-rule="nonzero" d="M.4 74.7h72.8l-36.4-63C15 24.2.4 47.7.4 74.7"/>
    <path stroke="#C4A8E0" stroke-width=".722" d="M.4 74.7h72.8l-36.4-63C15 24.2.4 47.7.4 74.7z"/>
    <path fill="#E02726" fill-rule="nonzero" d="M36.7 140l36.4-63H.4c0 25.1 13 49.5 36.3 63"/>
    <path stroke="#E02726" stroke-width=".722" d="M36.7 140l36.4-63H.4c0 25.1 13 49.5 36.3 63z"/>
    <path fill="#E87218" fill-rule="nonzero" d="M38.7 141.2l36.4-63 36.4 63c-21.8 12.5-49.4 13.4-72.8 0"/>
    <path stroke="#E87218" stroke-width=".722" d="M38.7 141.2l36.4-63 36.4 63c-21.8 12.5-49.4 13.4-72.8 0z"/>
    <path fill="#FFC53D" fill-rule="nonzero" d="M113.5 140L77.1 77h72.7c0 25.1-13 49.5-36.3 63"/>
    <path stroke="#FFC53D" stroke-width=".722" d="M113.5 140L77.1 77h72.7c0 25.1-13 49.5-36.3 63z"/>
    <path fill="#009848" fill-rule="nonzero" d="M149.9 74.7H77.1l36.4-63c21.7 12.5 36.4 36 36.4 63"/>
    <path stroke="#009848" stroke-width=".722" d="M149.9 74.7H77.1l36.4-63c21.7 12.5 36.4 36 36.4 63z"/>
    <path fill="#0073CB" fill-rule="nonzero" d="M38.7 10.7l36.4 63 36.4-63c-21.8-12.6-49.4-13.5-72.8 0"/>
    <path stroke="#0073CB" stroke-width=".722" d="M38.7 10.7l36.4 63 36.4-63c-21.8-12.6-49.4-13.5-72.8 0z"/>
    <path fill="#FFF" fill-rule="nonzero" d="M75.1 134.2c32.2 0 58.4-26.1 58.4-58.4 0-32.2-26.1-58.4-58.4-58.4-32.2 0-58.4 26.1-58.4 58.4.1 32.2 26.2 58.4 58.4 58.4"/>
    <path fill="#E02726" fill-rule="nonzero" d="M78.3 44.8L74 51.7v-6.9h-2.5l-5.2 8.1h3.1l2.1-3.6V56h3l3.8-6.7V56h2.6V44.8"/>
    <path fill="#E02726" fill-rule="nonzero" d="M65.6 44.8h-2.4V56h6.2v-2.2h-3.8m-5.9-8.9l-.7 1.2-6.1 9.9h3l1.3-2.2H60V56h2.4V44.9h-2.7zm.2 7.2h-2.1l1.1-1.8 1-1.7v3.5zm-4.2-7.2l-4.1 6.6v-6.6h-2.8l-4 6.6v-6.6h-2.5v11h2.5l4.5-7v7h2.3l6.8-11M87 53.8h1V56h2.4V44.9h-2.5l-.8 1.2L81 56h3l1.3-2.2H87zm.1-3.7l.9-1.5v3.5h-2l1-1.8.1-.2zm12-.3c.1-.5.2-.8.2-1.2 0-.6 0-1.1-.1-1.7-.4-1.1-1.4-1.7-2.6-1.9-.4-.1-.6-.1-1-.1h-4.1V56H94v-4.2c.8 0 1.1.8 1.4 1.3l.2.5 1.1 2.4h2.5l-2.3-4.7c1.1-.3 1.8-.8 2.2-1.5m-3.5-.1h-1.5v-3h1.5c1 .1 1.4.5 1.4 1.4.1 1-.4 1.5-1.4 1.6m10.3-4.8l-3.4 4.3v-4.3H100v11h2.5v-4.2l3.2 4.2h2.8l-4.3-5.6 4.3-5.4m1.6.2c-.3.2-.5.4-.7.7-.2.3-.3.6-.3 1 0 .3.1.6.3.9.2.3.4.5.7.7.3.2.6.3 1 .3.3 0 .6-.1.9-.3.3-.2.5-.4.7-.7.2-.3.2-.6.2-.9 0-.3-.1-.6-.3-1-.2-.3-.4-.5-.7-.7-.3-.2-.6-.2-.9-.2-.3 0-.6.1-.9.2zm1.7.3c.3.1.5.3.6.6.1.3.2.5.2.8 0 .3-.1.5-.2.8-.1.3-.3.4-.6.6-.3.1-.5.2-.8.2-.3 0-.5-.1-.8-.2-.3-.1-.5-.3-.6-.6-.1-.3-.2-.5-.2-.8 0-.3.1-.5.2-.8.1-.3.3-.5.6-.6.3-.1.5-.2.8-.2.3 0 .5.1.8.2zm-1.3 2.5V47h.2c.1 0 .2 0 .3.1.1.1.2.2.3.5l.2.3h.4l-.3-.4c-.1-.2-.2-.3-.3-.4 0 0-.1-.1-.2-.1.2 0 .3-.1.4-.2.1-.1.2-.2.2-.4 0-.1 0-.2-.1-.3-.1-.1-.2-.2-.3-.2-.1 0-.3-.1-.5-.1h-.7v2.1h.4zm0-1.8h.7c.1 0 .1.1.1.1s.1.1.1.2 0 .2-.1.2c-.1.1-.2.1-.4.1h-.4v-.6z"/>
    <path fill="#8E8E91" fill-rule="nonzero" d="M33.7 109.4V87h4.4v22.4m17.6 0l-8.9-13.7v13.7h-4.4V87h3.9l8.9 13.7V87h4.4v22.4m18.4-2.1c-1.5 1.5-3.6 2.1-5.9 2.1H64V87h8.1c2.3 0 4.4.7 5.9 2.1 2.5 2.5 2.3 5.6 2.3 9 0 3.4.3 6.7-2.3 9.2zm-3-14.9c-.8-.9-1.8-1.4-3.3-1.4h-3.3v14.6h3.3c1.5 0 2.5-.5 3.3-1.4.8-1 .9-2.6.9-6s-.1-4.8-.9-5.8zm9 17V87h14.7v3.9H88.3v5.2h8.8v3.9h-8.8v5.4h10.4v3.9H84m29.4.1l-4.3-7.8-4.3 7.8h-5l6.9-11.5-6.5-10.9h5l3.9 7.2L113 87h4.9l-6.5 10.9 7 11.5M46.1 79.9v-6.6h-5.4v6.6h-3.1V64.1h3.1v6.5h5.4v-6.5h3.1v15.8m3 0V64.1h10.4v2.8h-7.3v3.7h6.3v2.8h-6.3v3.9h7.3v2.8H52.2m22.5-.2l-.9-2.8h-5.6l-1 2.8H64l5.8-15.8h2.4L78 79.9h-3.3zm-3.6-11.1l-2 5.8H73l-1.9-5.8zm8.6 11.1V64.1h3.1v13.1H90V80H79.7m16.7-13.1V80h-3.1V66.9h-4.1v-2.8h11.4v2.8m10.2 13v-6.6h-5.4v6.6h-3.1V64.1h3.1v6.5h5.4v-6.5h3.1v15.8"/>
  </g>
</svg>
