<svg width="14px" height="14px" viewBox="0 0 14 14" version="1.1" xmlns="http://www.w3.org/2000/svg" xmlns:xlink="http://www.w3.org/1999/xlink">
    <g id="HealthIndexSettings">
        <g transform="translate(-1096.000000, -1451.000000)" id="calendar">
            <g transform="translate(165.000000, 1377.000000)">
                <g id="calendar-header" transform="translate(160.000000, 44.000000)">
                    <g id="downloadBtn" transform="translate(751.000000, 22.000000)">
                        <g id="tech-24px-glyph_print" transform="translate(20.000000, 8.000000)">
                            <path d="M13.4166667,2.91666667 L11.6666667,2.91666667 L11.6666667,0.583333333 C11.6666667,0.261333333 11.4053333,0 11.0833333,0 L2.91666667,0 C2.59466667,0 2.33333333,0.261333333 2.33333333,0.583333333 L2.33333333,2.91666667 L0.583333333,2.91666667 C0.261333333,2.91666667 0,3.178 0,3.5 L0,10.5 C0,10.822 0.261333333,11.0833333 0.583333333,11.0833333 L2.33333333,11.0833333 L2.33333333,13.4166667 C2.33333333,13.7386667 2.59466667,14 2.91666667,14 L11.0833333,14 C11.4053333,14 11.6666667,13.7386667 11.6666667,13.4166667 L11.6666667,11.0833333 L13.4166667,11.0833333 C13.7386667,11.0833333 14,10.822 14,10.5 L14,3.5 C14,3.178 13.7386667,2.91666667 13.4166667,2.91666667 Z M3.5,1.16666667 L10.5,1.16666667 L10.5,2.91666667 L3.5,2.91666667 L3.5,1.16666667 Z M3.5,12.8333333 L3.5,7.58333333 L10.5,7.58333333 L10.5,10.4988333 C10.5,10.4994167 10.5,10.5 10.5,10.5 C10.5,10.5 10.5,10.5011667 10.5,10.5011667 L10.5,12.8333333 L3.5,12.8333333 Z" id="Shape"></path>
                        </g>
                    </g>
                </g>
            </g>
        </g>
    </g>
</svg>
