<svg width="26" height="54" viewBox="0 0 26 54" xmlns="http://www.w3.org/2000/svg"><g><path d="M12.842 15.012c1.18 0 2.28-.518 3.104-1.46 1.96-2.21.844-5.05.176-6.75-.858-2.2-2.375-5.5-2.436-5.64-.13-.302-.407-.496-.717-.5-.304 0-.58.192-.72.493 0 0-1.638 3.492-2.652 5.582-1.377 2.86-1.32 5.152.147 6.816.837.94 1.93 1.46 3.097 1.46m-1.808-7.396c.574-1.19 1.35-2.834 1.915-4.033.517 1.168-1.012 9.846-2.06 8.666-.622-.71-1.167-1.88.144-4.633M23.91 17.666H1.377C0 17.666.11 18.736.11 18.736c0 20.01 3.28 32.758 3.28 32.758.213 1.078 4.208 1.947 9.254 1.947 5.045 0 9.04-.868 9.253-1.946 0 0 3.28-12.748 3.28-32.758 0 0 .11-1.07-1.268-1.07M19.674 47.54s-.092.772-1.234 1.042c0 0-2.172.377-5.796.377-3.625 0-5.797-.378-5.797-.378-1.143-.27-1.234-1.04-1.234-1.04-3.94-11.21-3.455-28.247-3.455-28.247H23.98s-.365 17.037-4.305 28.246"/><path d="M4.063 30.64H21.4c-.614 5.4-1.648 11.306-3.378 16.23l-.037.103-.004.037c-.023.033-.09.074-.21.108-.34.054-2.006.345-5.127.345-3.117 0-4.78-.29-5.125-.345-.123-.034-.187-.075-.21-.108l-.006-.037-.036-.104c-1.732-4.924-2.59-10.83-3.203-16.23zm3.746 7.62l4.503 6.49c3.508-7.748 7.55-11.052 7.55-11.052h-2.21c-4.293 3.01-5.56 5.775-5.56 5.775l-3.27-2.227-1.014 1.014z"/></g></svg>
