<svg width="43" height="37" viewBox="0 0 43 37" xmlns="http://www.w3.org/2000/svg"><g><path d="M34.653 13.77c-.625-1.092-1.27-2.22-1.81-3.373-.893-1.898-1.338-3.6-1.362-5.197-.013-.895.273-1.698.575-2.55.207-.58.42-1.18.526-1.808l.03-.177h-1.878L30.71.79c-.1.59-.303 1.175-.5 1.744-.215.615-.437 1.252-.537 1.914-.223 1.46.13 2.965.463 4.113.685 2.356 1.92 4.52 3.14 6.626-.654.156-1.307.318-1.957.48-3.173.79-6.17 1.538-9.42 1.538-2.612-.004-5.22-.623-7.743-1.223-1.058-.25-2.15-.51-3.23-.72 1.228-2.12 2.488-4.31 3.182-6.7.33-1.147.686-2.65.463-4.112-.1-.662-.322-1.3-.537-1.916-.197-.567-.4-1.153-.5-1.74l-.023-.127h-1.88l.032.177c.105.63.32 1.23.525 1.81.303.85.587 1.653.574 2.548-.023 1.597-.468 3.297-1.36 5.197-.54 1.152-1.187 2.28-1.812 3.37-.886 1.55-1.802 3.153-2.44 4.858-1.138 3.04-1.49 6.06-1.075 9.235.37 2.844.864 5.844 1.943 8.504l.04.093h1.82l.01-.142c.012-.162-.014-.318-.08-.467-.59-1.363-.866-2.76-1.157-4.238l-.22-1.094c-.326-1.605-.663-3.266-.694-4.912-.036-1.918.292-3.88.977-5.836 1.57.443 3.056 1.178 4.495 1.89.81.4 1.646.815 2.492 1.175 1.65.703 3.992 2.17 5.263 3.748v9.877h2.302V26.6c3.043-3.3 7.257-5.687 12.223-6.926.71 1.987 1.05 3.98 1.014 5.93-.032 1.648-.37 3.31-.697 4.918l-.218 1.088c-.29 1.478-.566 2.875-1.158 4.238-.064.15-.092.31-.078.47l.012.14h1.818l.04-.094c1.08-2.664 1.572-5.66 1.943-8.504.413-3.174.062-6.194-1.075-9.235-.64-1.705-1.555-3.306-2.442-4.855"/><path d="M21.975 14.78c.47 0 .854-.606.854-1.356 0-.75-.384-1.358-.855-1.358-.472 0-.854.608-.854 1.358 0 .75.383 1.357.855 1.357M38.183 4.303v-3.13l-4.603 5.27 4.603 5.27V8.06l4.582-.105V4.303M11.332 6.45l-5.27-4.6-5.27 4.6h3.652l.106 4.585H8.2l.002-4.584"/></g></svg>
