<svg width="50px" height="39px" viewBox="-2 -2 54 43" version="1.1" xmlns="http://www.w3.org/2000/svg" xmlns:xlink="http://www.w3.org/1999/xlink">
    <g id="HealthIndexSettings">
        <g id="HealthIndexSettings-Small" transform="translate(-413.000000, -2531.000000)">
            <g id="calendar" transform="translate(34.000000, 1919.000000)">
                <g transform="translate(0.000000, 90.000000)" id="days">
                    <g transform="translate(15.000000, 195.000000)">
                        <g id="day2-copy" transform="translate(0.000000, 270.000000)">
                            <g id="overlay" transform="translate(0.000000, 30.000000)">
                                <path d="M414,34.483871 C414,33.6774194 413.677419,32.8709677 413.096774,32.2903226 L408.709677,27.9032258 C408.129032,27.3225806 407.322581,27 406.516129,27 C405.709677,27 404.903226,27.3225806 404.322581,27.9032258 L383.16129,49.0967742 L373.677419,39.5806452 C373.096774,39 372.290323,38.6774194 371.483871,38.6774194 C370.677419,38.6774194 369.870968,39 369.290323,39.5806452 L364.903226,43.9677419 C364.322581,44.5483871 364,45.3548387 364,46.1612903 C364,46.9677419 364.322581,47.7741935 364.903226,48.3548387 L380.967742,64.4193548 C381.548387,65 382.354839,65.3225806 383.16129,65.3225806 C383.967742,65.3225806 384.774194,65 385.354839,64.4193548 L413.096774,36.6774194 C413.677419,36.0967742 414,35.2903226 414,34.483871 Z" id="check-icon"></path>
                            </g>
                        </g>
                    </g>
                </g>
            </g>
        </g>
    </g>
</svg>
