<?xml version="1.0" encoding="utf-8"?>
<!-- Svg Vector Icons : http://www.onlinewebfonts.com/icon -->
<!DOCTYPE svg PUBLIC "-//W3C//DTD SVG 1.1//EN" "http://www.w3.org/Graphics/SVG/1.1/DTD/svg11.dtd">
<svg version="1.1" xmlns="http://www.w3.org/2000/svg" xmlns:xlink="http://www.w3.org/1999/xlink" x="0px" y="0px" viewBox="0 0 1000 1000" enable-background="new 0 0 1000 1000" xml:space="preserve">
<metadata> Svg Vector Icons : http://www.onlinewebfonts.com/icon </metadata>
<g><g><g id="_x31__2_"><g><path d="M954.7,304.4H828.5l34.5-24.5c15.9-11.3,19.6-33.3,8.3-49.2c-11.3-15.9-33.3-19.6-49.2-8.3l-119.9,85.3c-9,6.4-14.5,16.8-14.8,27.8c-0.3,11.1,4.7,21.7,13.4,28.6l119.9,94.8c6.5,5.1,14.2,7.6,21.9,7.6c10.4,0,20.7-4.6,27.7-13.4c12.1-15.3,9.5-37.5-5.8-49.5l-36.3-28.7h126.6c19.5,0,35.3-15.8,35.3-35.3C990,320.2,974.2,304.4,954.7,304.4z"/><path d="M316,343.9c0.3-11.1-4.7-21.7-13.4-28.6l-119.9-94.8c-15.3-12.1-37.5-9.5-49.5,5.8c-12.1,15.3-9.5,37.5,5.8,49.5l36.3,28.7H45.3c-19.5,0-35.3,15.8-35.3,35.3S25.8,375,45.3,375h129.5l-34.5,24.5c-15.9,11.3-19.6,33.3-8.3,49.2c6.9,9.7,17.7,14.8,28.8,14.8c7.1,0,14.2-2.1,20.4-6.5l119.9-85.3C310.2,365.3,315.7,355,316,343.9z"/><path d="M250.6,614.4c0,1-0.1,2.1-0.1,3.1c-2,120.9,27.5,202.1,79.7,254.2c28.7,0,86.2,0,147.2,0c0.3-30.3,0.7-94.8-0.2-127.6C475.9,695.6,327.5,640,250.6,614.4z"/><path d="M650,382.4c-33.9-84.8,5.5-254.2-4.6-254.2c-4.8,0-73.1,0-143.3,0c-0.8,0-1.6,0-2.5,0c-70.2,0-138.5,0-143.3,0c-10.1,0,29.3,169.5-4.6,254.2c-38,95-84.8,111.2-97.7,193.1c87.9,16.2,172.5,21.4,246.9,21c74.4,0.5,159-4.8,246.9-21C734.8,493.6,688,477.5,650,382.4z"/><path d="M751,614.4c-76.8,25.5-225.3,81.2-226.6,129.8c-0.9,32.8-0.5,97.3-0.2,127.6c60.9,0,118.4,0,147.2,0c52.2-52.2,81.7-133.4,79.7-254.2C751.1,616.5,751.1,615.5,751,614.4z"/></g></g></g><g></g><g></g><g></g><g></g><g></g><g></g><g></g><g></g><g></g><g></g><g></g><g></g><g></g><g></g><g></g></g>
</svg>